# xmcd
#
# Track frame offsets: 
#        150
#        15210
#        31327
#        47620
#        64755
#        85875
#        111567
#        127717
#        140120
#        159462
#        176940
#        191595
#        203152
#        219472
#        234845
#        250675
#        266032
#        283862
#        311460
#
# Disc length: 4440 seconds
#
# Revision: 2
# Processed by: cddbd v1.5.2PL0 Copyright (c) Steve Scherf et al.
# Submitted via: ExactAudioCopy v0.95b3
#
DISCID=0c115613
DTITLE=Various Artist - Complete Seventies [Disc 3]
DYEAR=2005
DGENRE=Classic Rock
TTITLE0=The Ormsby Brothers - You Don't Own Me
TTITLE1=Suzi Quatro - Can The Can
TTITLE2=C.C.S. - The Band Played Boogie
TTITLE3=Ross Ryan - I Am Pegasus
TTITLE4=Bobby Goldsboro - Summer (The First Time)
TTITLE5=Ike and Tina Turner - Nutbush City Limits
TTITLE6=Cozy Powell - Dance With The Devil
TTITLE7=Grand Funk Railroad - The Loco-motion
TTITLE8=Mike Oldfield - Tubular Bells
TTITLE9=Mud - Tiger Feet
TTITLE10=George McCrae - Rock Your Baby
TTITLE11=Paul Anka and Odia Coates - (You're) Having My Baby
TTITLE12=Sherbet - Summer Love
TTITLE13=Minnie Riperton - Lovin' You
TTITLE14=Pilot - January
TTITLE15=Al Martino - To The Door Of The Sun
TTITLE16=Steve Harley and Cockney Rebel - Make Me Smile (Come Up And See
TTITLE16=Me)
TTITLE17=Billie Jo Spears - Blanket On The Ground
TTITLE18=Data
EXTD=
EXTT0=
EXTT1=
EXTT2=
EXTT3=
EXTT4=
EXTT5=
EXTT6=
EXTT7=
EXTT8=
EXTT9=
EXTT10=
EXTT11=
EXTT12=
EXTT13=
EXTT14=
EXTT15=
EXTT16=
EXTT17=
EXTT18=
PLAYORDER=
